<?xml version="1.0" encoding="UTF-8"?>
<svg width="16px" height="16px" viewBox="0 0 16 16" version="1.1" xmlns="http://www.w3.org/2000/svg" xmlns:xlink="http://www.w3.org/1999/xlink">
    <!-- Generator: Sketch 55.1 (78136) - https://sketchapp.com -->
    <title>dashboard</title>
    <desc>Created with Sketch.</desc>
    <g id="Page-1" stroke="none" stroke-width="1" fill="none" fill-rule="evenodd">
        <g id="Artboard" transform="translate(-86.000000, -57.000000)" fill="#1998FF">
            <g id="dashboard" transform="translate(86.000000, 57.000000)">
                <path d="M5.888,0.16 L1.488,0.16 C0.8252583,0.16 0.288,0.6972583 0.288,1.36 L0.288,5.76 C0.288,6.4227417 0.8252583,6.96 1.488,6.96 L5.888,6.96 C6.5507417,6.96 7.088,6.4227417 7.088,5.76 L7.088,1.36 C7.088,0.6972583 6.5507417,0.16 5.888,0.16 Z M5.888,5.76 L1.488,5.76 L1.488,1.36 L5.888,1.36 L5.888,5.76 Z" id="Shape"></path>
                <path d="M14.688,0.16 L10.288,0.16 C9.6252583,0.16 9.088,0.6972583 9.088,1.36 L9.088,5.76 C9.088,6.4227417 9.6252583,6.96 10.288,6.96 L14.688,6.96 C15.3507417,6.96 15.888,6.4227417 15.888,5.76 L15.888,1.36 C15.888,0.6972583 15.3507417,0.16 14.688,0.16 Z M14.688,5.76 L10.288,5.76 L10.288,1.36 L14.688,1.36 L14.688,5.76 Z" id="Shape"></path>
                <path d="M5.888,8.96 L1.488,8.96 C0.8252583,8.96 0.288,9.4972583 0.288,10.16 L0.288,14.56 C0.288,15.2227417 0.8252583,15.76 1.488,15.76 L5.888,15.76 C6.5507417,15.76 7.088,15.2227417 7.088,14.56 L7.088,10.16 C7.088,9.4972583 6.5507417,8.96 5.888,8.96 Z M5.888,14.56 L1.488,14.56 L1.488,10.16 L5.888,10.16 L5.888,14.56 Z" id="Shape"></path>
                <path d="M14.688,8.96 L10.288,8.96 C9.6252583,8.96 9.088,9.4972583 9.088,10.16 L9.088,14.56 C9.088,15.2227417 9.6252583,15.76 10.288,15.76 L14.688,15.76 C15.3507417,15.76 15.888,15.2227417 15.888,14.56 L15.888,10.16 C15.888,9.4972583 15.3507417,8.96 14.688,8.96 Z M14.688,14.56 L10.288,14.56 L10.288,10.16 L14.688,10.16 L14.688,14.56 Z" id="Shape"></path>
            </g>
        </g>
    </g>
</svg>