<?xml version="1.0" encoding="UTF-8"?>
<svg width="10px" height="16px" viewBox="0 0 10 16" version="1.1" xmlns="http://www.w3.org/2000/svg" xmlns:xlink="http://www.w3.org/1999/xlink">
    <!-- Generator: Sketch 55.1 (78136) - https://sketchapp.com -->
    <title>Mobile</title>
    <desc>Created with Sketch.</desc>
    <g id="Page-1" stroke="none" stroke-width="1" fill="none" fill-rule="evenodd">
        <g id="Artboard" transform="translate(-512.000000, -80.000000)" fill="#000000">
            <g id="Mobile" transform="translate(512.000000, 80.000000)">
                <path d="M9.50044444,2.63111111 C9.50044444,1.25653573 8.38613093,0.142222222 7.01155556,0.142222222 L2.74488889,0.142222222 C1.37031351,0.142222222 0.256,1.25653573 0.256,2.63111111 L0.256,13.2977778 C0.256,14.6723532 1.37031351,15.7866667 2.74488889,15.7866667 L7.01155556,15.7866667 C8.38613093,15.7866667 9.50044444,14.6723532 9.50044444,13.2977778 L9.50044444,2.63111111 Z M1.32266667,3.34222222 L8.43377778,3.34222222 L8.43377778,11.8755556 L1.32266667,11.8755556 L1.32266667,3.34222222 Z M2.74488889,1.20888889 L7.01155556,1.20888889 C7.65836693,1.21098922 8.22229971,1.64927896 8.384,2.27555556 L1.37244444,2.27555556 C1.53414473,1.64927896 2.09807752,1.21098922 2.74488889,1.20888889 Z M7.01155556,14.72 L2.74488889,14.72 C1.95941724,14.72 1.32266667,14.0832494 1.32266667,13.2977778 L1.32266667,12.9422222 L8.43377778,12.9422222 L8.43377778,13.2977778 C8.43377778,14.0832494 7.7970272,14.72 7.01155556,14.72 Z" id="Shape"></path>
                <circle id="Oval" cx="4.70044444" cy="13.8311111" r="1"></circle>
            </g>
        </g>
    </g>
</svg>