<?xml version="1.0" encoding="UTF-8"?>
<svg width="18px" height="20px" viewBox="0 0 16 15" version="1.1" xmlns="http://www.w3.org/2000/svg" xmlns:xlink="http://www.w3.org/1999/xlink">
    <!-- Generator: Sketch 55.1 (78136) - https://sketchapp.com -->
    <title>Слой_151</title>
    <desc>Created with Sketch.</desc>
    <g id="Page-1" stroke="none" stroke-width="1" fill="none" fill-rule="evenodd">
        <g id="Artboard" transform="translate(-345.000000, -57.000000)" fill="#1998FF">
            <g id="Слой_151" transform="translate(345.000000, 57.000000)">
                <path d="M12.7004444,1.20888889 C13.8786519,1.20888889 14.8337778,2.16401476 14.8337778,3.34222222 L14.8337778,9.03111111 C14.8337778,10.2093186 13.8786519,11.1644444 12.7004444,11.1644444 L6.21155556,11.1644444 L3.81155556,13.2977778 L3.81155556,11.1644444 L3.456,11.1644444 C2.27779253,11.1644444 1.32266667,10.2093186 1.32266667,9.03111111 L1.32266667,3.34222222 C1.32266667,2.16401476 2.27779253,1.20888889 3.456,1.20888889 L12.7004444,1.20888889 L12.7004444,1.20888889 Z M12.7004444,0.142222222 L3.456,0.142222222 C1.6886888,0.142222222 0.256,1.57491102 0.256,3.34222222 L0.256,9.03111111 C0.255164137,10.5251191 1.28823677,11.8208873 2.74488889,12.1528889 L2.74488889,13.2977778 C2.74433691,13.7186725 2.99134174,14.1005388 3.37545195,14.2726201 C3.75956217,14.4447015 4.20895033,14.3748193 4.52266667,14.0942222 L6.62044444,12.2311111 L12.7004444,12.2311111 C14.4677556,12.2311111 15.9004444,10.7984223 15.9004444,9.03111111 L15.9004444,3.34222222 C15.9004444,1.57491102 14.4677556,0.142222222 12.7004444,0.142222222 L12.7004444,0.142222222 Z" id="Shape"></path>
                <circle id="Oval" cx="8.07822222" cy="6.18666667" r="1"></circle>
                <circle id="Oval" cx="11.6337778" cy="6.18666667" r="1"></circle>
                <circle id="Oval" cx="4.56533333" cy="6.18666667" r="1"></circle>
            </g>
        </g>
    </g>
</svg>