<?xml version="1.0" encoding="UTF-8"?>
<svg width="18px" height="16px" viewBox="0 0 18 16" version="1.1" xmlns="http://www.w3.org/2000/svg" xmlns:xlink="http://www.w3.org/1999/xlink">
    <!-- Generator: Sketch 55.1 (78136) - https://sketchapp.com -->
    <title>Dialog</title>
    <desc>Created with Sketch.</desc>
    <g id="Page-1" stroke="none" stroke-width="1" fill="none" fill-rule="evenodd">
        <g id="Artboard" transform="translate(-178.000000, -311.000000)" fill="#1998FF">
            <g id="Dialog" transform="translate(178.000000, 311.000000)">
                <path d="M16.688,4.96 L13.088,4.96 L13.088,1.36 C13.088,0.6972583 12.5507417,0.16 11.888,0.16 L1.488,0.16 C0.8252583,0.16 0.288,0.6972583 0.288,1.36 L0.288,7.76 C0.288,8.4227417 0.8252583,8.96 1.488,8.96 L1.716,8.96 L1.576,9.316 C1.38693867,9.78736109 1.51507702,10.3266966 1.89594482,10.6626508 C2.27681262,10.9986049 2.82792468,11.0584195 3.272,10.812 L5.088,9.804 L5.088,12.564 C5.088,13.2267417 5.6252583,13.764 6.288,13.764 L11.576,13.764 L14.904,15.612 C15.3480753,15.8584195 15.8991874,15.7986049 16.2800552,15.4626508 C16.660923,15.1266966 16.7890613,14.5873611 16.6,14.116 L16.46,13.76 L16.688,13.76 C17.3507417,13.76 17.888,13.2227417 17.888,12.56 L17.888,6.16 C17.888,5.4972583 17.3507417,4.96 16.688,4.96 Z M5.088,6.16 L5.088,8.428 L2.688,9.76 L3.488,7.76 L1.488,7.76 L1.488,1.36 L11.888,1.36 L11.888,4.96 L6.288,4.96 C5.6252583,4.96 5.088,5.4972583 5.088,6.16 Z M16.688,12.56 L14.688,12.56 L15.488,14.56 L11.888,12.56 L6.288,12.56 L6.288,6.16 L16.688,6.16 L16.688,12.56 Z" id="Shape"></path>
                <path d="M7.888,8.56 L15.088,8.56 C15.4193708,8.56 15.688,8.29137085 15.688,7.96 C15.688,7.62862915 15.4193708,7.36 15.088,7.36 L7.888,7.36 C7.55662915,7.36 7.288,7.62862915 7.288,7.96 C7.288,8.29137085 7.55662915,8.56 7.888,8.56 L7.888,8.56 Z" id="Shape"></path>
                <path d="M7.888,10.96 L15.088,10.96 C15.4193708,10.96 15.688,10.6913708 15.688,10.36 C15.688,10.0286292 15.4193708,9.76 15.088,9.76 L7.888,9.76 C7.55662915,9.76 7.288,10.0286292 7.288,10.36 C7.288,10.6913708 7.55662915,10.96 7.888,10.96 L7.888,10.96 Z" id="Shape"></path>
            </g>
        </g>
    </g>
</svg>