<?xml version="1.0" encoding="UTF-8"?>
<svg width="16px" height="16px" viewBox="0 0 16 16" version="1.1" xmlns="http://www.w3.org/2000/svg" xmlns:xlink="http://www.w3.org/1999/xlink">
    <!-- Generator: Sketch 55.1 (78136) - https://sketchapp.com -->
    <title>settings</title>
    <desc>Created with Sketch.</desc>
    <g id="Page-1" stroke="none" stroke-width="1" fill="none" fill-rule="evenodd">
        <g id="Artboard" transform="translate(-220.000000, -75.000000)" fill="#1998FF">
            <g id="settings" transform="translate(220.000000, 75.000000)">
                <path d="M8.07822222,5.12 C6.50727893,5.12 5.23377778,6.39350116 5.23377778,7.96444444 C5.23377778,9.53538773 6.50727893,10.8088889 8.07822222,10.8088889 C9.64916551,10.8088889 10.9226667,9.53538773 10.9226667,7.96444444 C10.9226667,6.39350116 9.64916551,5.12 8.07822222,5.12 Z M8.07822222,9.74222222 C7.09638267,9.74222222 6.30044444,8.946284 6.30044444,7.96444444 C6.30044444,6.98260489 7.09638267,6.18666667 8.07822222,6.18666667 C9.06006178,6.18666667 9.856,6.98260489 9.856,7.96444444 C9.856,8.946284 9.06006178,9.74222222 8.07822222,9.74222222 Z" id="Shape"></path>
                <path d="M14.8337778,5.83111111 L14.4782222,5.83111111 C14.3813777,5.52544551 14.2625491,5.22718572 14.1226667,4.93866667 L14.368,4.69333333 C14.7839337,4.27688171 14.7839337,3.6022294 14.368,3.18577778 L12.8604444,1.67822222 C12.4439928,1.26228853 11.7693405,1.26228853 11.3528889,1.67822222 L11.1004444,1.92 C10.8119204,1.78012897 10.5136614,1.6613007 10.208,1.56444444 L10.208,1.20888889 C10.208,0.619785156 9.73043707,0.142222222 9.14133333,0.142222222 L7.008,0.142222222 C6.41889627,0.142222222 5.94133333,0.619785156 5.94133333,1.20888889 L5.94133333,1.56444444 C5.63567191,1.6613007 5.33741295,1.78012897 5.04888889,1.92 L4.80355556,1.67466667 C4.38710393,1.25873297 3.71245162,1.25873297 3.296,1.67466667 L1.78844444,3.18222222 C1.37251075,3.59867384 1.37251075,4.27332616 1.78844444,4.68977778 L2.03377778,4.93511111 C1.89389538,5.22363016 1.77506678,5.52188995 1.67822222,5.82755556 L1.32266667,5.82755556 C0.733562934,5.82755556 0.256,6.30511849 0.256,6.89422222 L0.256,9.02755556 C0.256,9.61665929 0.733562934,10.0942222 1.32266667,10.0942222 L1.67822222,10.0942222 C1.77506678,10.3998878 1.89389538,10.6981476 2.03377778,10.9866667 L1.78844444,11.232 C1.37251075,11.6484516 1.37251075,12.3231039 1.78844444,12.7395556 L3.296,14.2471111 C3.71245162,14.6630448 4.38710393,14.6630448 4.80355556,14.2471111 L5.056,14.0088889 C5.34452406,14.1487599 5.64278302,14.2675882 5.94844444,14.3644444 L5.94844444,14.72 C5.94844444,15.3091037 6.42600738,15.7866667 7.01511111,15.7866667 L9.14844444,15.7866667 C9.73754818,15.7866667 10.2151111,15.3091037 10.2151111,14.72 L10.2151111,14.3644444 C10.5207725,14.2675882 10.8190315,14.1487599 11.1075556,14.0088889 L11.3528889,14.2542222 C11.7693405,14.6701559 12.4439928,14.6701559 12.8604444,14.2542222 L14.368,12.7466667 C14.7839337,12.330215 14.7839337,11.6555627 14.368,11.2391111 L14.1226667,10.9937778 C14.2625491,10.7052587 14.3813777,10.4069989 14.4782222,10.1013333 L14.8337778,10.1013333 C15.4228815,10.1013333 15.9004444,9.6237704 15.9004444,9.03466667 L15.9004444,6.90133333 C15.9013895,6.6178202 15.7894262,6.34559504 15.5892849,6.14478657 C15.3891436,5.94397811 15.1172925,5.83110954 14.8337778,5.83111111 L14.8337778,5.83111111 Z M14.8337778,9.03111111 L13.664,9.03111111 C13.519831,9.79527135 13.2196563,10.5215004 12.7822222,11.1644444 L13.6071111,11.9893333 L12.0995556,13.4968889 L11.2746667,12.672 C10.6317713,13.1095242 9.90552279,13.409707 9.14133333,13.5537778 L9.14133333,14.72 L7.008,14.72 L7.008,13.5502222 C6.24381054,13.4061514 5.51756205,13.1059687 4.87466667,12.6684444 L4.04977778,13.4933333 L2.54222222,11.9857778 L3.36711111,11.1608889 C2.92967706,10.5179449 2.62950238,9.79171579 2.48533333,9.02755556 L1.32266667,9.02755556 L1.32266667,6.89422222 L2.49244444,6.89422222 C2.63661349,6.13006199 2.93678817,5.40383292 3.37422222,4.76088889 L2.54933333,3.936 L4.05688889,2.42844444 L4.88177778,3.25333333 C5.52472181,2.81589928 6.25095088,2.5157246 7.01511111,2.37155556 L7.01511111,1.20888889 L9.14844444,1.20888889 L9.14844444,2.37866667 C9.91260468,2.52283571 10.6388337,2.82301039 11.2817778,3.26044444 L12.1066667,2.43555556 L13.6142222,3.94311111 L12.7822222,4.76444444 C13.2196563,5.40738848 13.519831,6.13361754 13.664,6.89777778 L14.8337778,6.89777778 L14.8337778,9.03111111 Z" id="Shape"></path>
            </g>
        </g>
    </g>
</svg>