<?xml version="1.0" encoding="UTF-8"?>
<svg width="647px" height="334px" viewBox="0 0 647 334" version="1.1" xmlns="http://www.w3.org/2000/svg" xmlns:xlink="http://www.w3.org/1999/xlink">
    <!-- Generator: Sketch 55.1 (78136) - https://sketchapp.com -->
    <title>12 Devices</title>
    <desc>Created with Sketch.</desc>
    <g id="Page-1" stroke="none" stroke-width="1" fill="none" fill-rule="evenodd">
        <g id="Desktop-HD" transform="translate(-700.000000, -229.000000)" fill-rule="nonzero">
            <g id="12-Devices" transform="translate(700.000000, 229.000000)">
                <g id="Nature" transform="translate(491.000000, 22.000000)">
                    <g id="Plant">
                        <path d="M114.598305,97.0939877 C115.171186,98.043681 115.294576,99.1965644 115.325424,100.309693 C115.616271,110.464785 108.962034,120.452025 99.4962712,124.069693 C97.2708475,124.922209 94.8338983,125.500859 93.0976271,127.130798 C91.3613559,128.765153 90.7972881,131.972025 92.7054237,133.394356 C93.9701695,134.335215 95.719661,134.12319 97.2752542,133.866994 C102.955593,132.926135 108.640339,131.985276 114.320678,131.044417 C115.457627,136.243436 112.416949,142.04319 107.498983,144.048589 C105.441017,144.887853 103.149492,145.121963 101.184068,146.164417 C99.2186441,147.206871 97.6145763,149.547975 98.4694915,151.60638 C99.2450847,153.479264 101.805424,154.59681 101.624746,156.619877 C101.452881,158.576687 98.9850847,159.186258 97.1474576,159.853252 C87.6420339,163.289816 87.9989831,177.128834 81.5827119,184.951656 C77.4183051,190.026994 70.7288136,192.107485 64.4315254,193.940613 C58.9979661,195.521963 53.3088136,197.116564 47.7562712,196.034356 C38.6474576,194.263067 31.9138983,184.448098 33.5267797,175.291288 C35.1352542,166.14773 43.2437288,159.857669 50.3518644,153.90773 C65.2467797,141.442454 77.1671186,129.860613 80.6264407,110.623804 C81.7810169,104.205644 83.6450847,99.8723926 89.4311864,96.2768098 C95.2437288,92.6635583 110.059322,89.5626994 114.598305,97.0939877 Z" id="Path" fill="#F44E4E"></path>
                        <path d="M28.6440678,167.154847 C32.980339,161.500859 37.3210169,155.846871 41.6572881,150.192883 C54.4810169,133.482699 67.4854237,116.450061 74.8711864,96.7096933 C77.7928814,88.9045399 79.8111864,80.5869939 79.1325424,72.2826994 C78.9959322,70.5732515 78.6654237,68.7268712 77.3962712,67.5784049 C75.2369492,65.6260123 71.8261017,66.7744785 69.2481356,68.1128834 C61.5054237,72.1325153 54.2474576,77.0841718 47.6813559,82.8353374 C47.4742373,64.6100613 65.1542373,50.8152147 68.3094915,32.8638037 C68.820678,29.9528834 68.8867797,26.763681 67.3311864,24.2547239 C66.3308475,22.642454 64.74,21.4586503 63.0213559,20.6635583 C57.1735593,17.951411 50.0610169,19.563681 44.6891525,23.1327607 C39.3216949,26.7018405 35.3335593,31.9582822 31.46,37.117546 C36.8627119,30.2311656 40.260339,21.7811043 41.1328814,13.0615951 C41.4942373,9.44834356 41.3047458,5.44638037 38.9118644,2.71656442 C34.8576271,-1.90380368 26.9166102,3.46944695e-17 22.5891525,4.37300613 C14.2471186,12.8009816 14.6040678,26.2203681 14.8905085,38.0893252 C15.1769492,49.9582822 13.8240678,63.8017178 3.9,70.286135 C2.71016949,71.0635583 1.37050847,71.7614724 0.678644068,73.0071166 C-0.669830508,75.4321472 1.22949153,78.5109202 3.6179661,79.92 C6.00644068,81.3290798 8.87084746,81.7928834 11.2108475,83.2770552 C16.459322,86.6031902 17.5081356,93.847362 16.9352542,100.044663 C16.3623729,106.241963 14.7274576,112.629202 16.6047458,118.56589 C18.9359322,125.946994 19.4294915,135.373252 21.1437288,142.922209 C21.919322,146.349939 28.2827119,145.616687 28.4105085,149.128344 C28.5427119,152.64 29.4857627,156.438773 32.2884746,158.550184 C35.0955932,160.657178 40.0664407,159.804663 40.9213559,156.394601" id="Path" fill="#5A54FF"></path>
                        <path d="M129.532881,285.769325 C137.368136,285.08908 145.481017,284.05546 152.126441,279.841472 C154.594237,278.277791 157.017966,275.238773 155.550508,272.70773 C154.968814,271.705031 153.90678,271.099877 152.875593,270.57865 C142.242034,265.180859 129.687119,263.687853 118.088475,266.448589 C113.474576,267.544049 108.565424,269.275583 104.154237,267.535215 C114.117966,261.912147 124.081695,256.293497 134.045424,250.670429 C135.99322,249.570552 138.020339,248.4 139.232203,246.518282 C140.444068,244.636564 140.527797,241.818405 138.800339,240.391656 C138.042373,239.764417 137.055254,239.490552 136.085763,239.313865 C130.088136,238.209571 123.592542,240.356319 119.419322,244.813252 C125.685763,236.712147 129.86339,226.998773 131.432203,216.865767 C131.656949,215.408098 131.802373,213.817914 131.04,212.559018 C130.348136,211.419387 129.043729,210.809816 127.770169,210.429939 C123.319322,209.109202 118.273559,209.988221 114.52339,212.735706 C110.151864,215.942577 107.842712,221.163681 104.872542,225.70454 C101.897966,230.240982 97.3016949,234.583067 91.9033898,234.150184 C97.6145763,225.56319 100.501017,215.125399 100.011864,204.815706 C99.84,201.202454 99.2010169,197.447853 97.0549153,194.54135 C94.38,190.923681 89.6427119,189.18773 85.1610169,189.474847 C80.679322,189.761963 76.4576271,191.860123 72.9454237,194.665031 C62.4352542,203.07092 58.1033898,218.438282 62.6776271,231.111166 C63.8145763,234.265031 65.4627119,237.657423 64.3037288,240.806871 C63.4884746,243.01546 61.4657627,244.517301 59.4915254,245.798282 C46.240339,254.407362 29.7766102,268.445153 46.760339,283.609325 C51.3566102,287.712883 56.1247458,287.885153 62.0166102,287.721718 C71.5616949,287.456687 81.0847458,287.527362 90.6386441,287.443436 C103.607797,287.337423 116.594576,286.895706 129.532881,285.769325 Z" id="Path" fill="#FAE026"></path>
                        <path d="M15.6440678,160.847117 C15.5779661,160.847117 15.5118644,160.838282 15.4413559,160.820613 C14.9962712,160.710184 14.7318644,160.259632 14.8420339,159.813497 C40.7671186,56.9727607 41.2738983,56.4736196 41.4898305,56.2571779 C41.8159322,55.9347239 42.3359322,55.9391411 42.6576271,56.2660123 C42.9176271,56.5310429 42.9661017,56.928589 42.7986441,57.2377914 C41.8467797,59.7865031 25.1671186,125.620123 16.4416949,160.219877 C16.3491525,160.595337 16.0098305,160.847117 15.6440678,160.847117 Z" id="Path" fill="#FFFFFF"></path>
                        <path d="M26.7976271,116.746012 C26.4847458,116.746012 26.1894915,116.569325 26.0484746,116.268957 C25.8545763,115.853742 26.0352542,115.363436 26.4494915,115.16908 L58.5,100.234601 C58.9098305,100.044663 59.4077966,100.22135 59.5972881,100.636564 C59.7911864,101.051779 59.6105085,101.542086 59.1962712,101.736442 L27.1457627,116.67092 C27.0355932,116.723926 26.9166102,116.746012 26.7976271,116.746012 Z" id="Path" fill="#FFFFFF"></path>
                        <path d="M70.0413559,166.916319 C69.9355932,166.916319 69.8298305,166.894233 69.7240678,166.854479 C69.3010169,166.677791 69.1027119,166.196319 69.2789831,165.77227 L90.0084746,115.60638 C90.1847458,115.182331 90.6694915,114.983558 91.0881356,115.160245 C91.5111864,115.336933 91.7094915,115.818405 91.5332203,116.242454 L70.8037288,166.408344 C70.6715254,166.721963 70.3674576,166.916319 70.0413559,166.916319 Z" id="Path" fill="#FFFFFF"></path>
                        <path d="M70.0413559,283.998037 C69.8342373,283.998037 69.6271186,283.922945 69.4684746,283.768344 C69.1379661,283.450307 69.1291525,282.92908 69.4464407,282.597791 L104.211525,246.341595 C104.528814,246.010307 105.05322,246.00589 105.379322,246.319509 C105.709831,246.637546 105.718644,247.158773 105.401356,247.490061 L70.6362712,283.746258 C70.4776271,283.91411 70.2572881,283.998037 70.0413559,283.998037 Z" id="Path" fill="#FFFFFF"></path>
                        <path d="M113.888814,278.361718 C113.822712,278.361718 113.752203,278.352883 113.681695,278.335215 L83.4115254,270.428466 C82.9708475,270.31362 82.7064407,269.863067 82.8210169,269.416933 C82.9355932,268.975215 83.3850847,268.710184 83.8257627,268.825031 L114.095932,276.731779 C114.53661,276.846626 114.801017,277.297178 114.686441,277.743313 C114.589492,278.114356 114.258983,278.361718 113.888814,278.361718 Z" id="Path" fill="#FFFFFF"></path>
                    </g>
                </g>
                <g id="UI" transform="translate(112.000000, 0.000000)">
                    <g id="Computer">
                        <g id="Group">
                            <path d="M253.248071,294.673204 L146.800441,294.673204 C143.223815,294.673204 140.29548,291.740868 140.29548,288.159356 L140.29548,288.159356 C140.29548,284.577844 143.223815,281.645509 146.800441,281.645509 L253.252481,281.645509 C256.829107,281.645509 259.757442,284.577844 259.757442,288.159356 L259.757442,288.159356 C259.757442,291.740868 256.829107,294.673204 253.248071,294.673204 Z" id="Path" fill="#74D7FF"></path>
                            <path d="M219.969129,294.673204 L180.079383,294.673204 C177.287762,294.673204 175.003308,292.385629 175.003308,289.590195 L175.003308,241.944162 C175.003308,239.148728 177.287762,236.861153 180.079383,236.861153 L219.969129,236.861153 C222.76075,236.861153 225.045204,239.148728 225.045204,241.944162 L225.045204,289.590195 C225.045204,292.385629 222.76075,294.673204 219.969129,294.673204 Z" id="Path" fill="#1998FF"></path>
                            <g id="Path">
                                <path d="M385.966924,254.331512 L14.0815877,254.331512 C6.39470783,254.331512 0.10584344,248.034057 0.10584344,240.336677 L0.10584344,14.0787425 C0.10584344,6.38136228 6.39470783,0.0839071856 14.0815877,0.0839071856 L385.966924,0.0839071856 C393.653804,0.0839071856 399.94267,6.38136228 399.94267,14.0787425 L399.94267,240.336677 C399.947078,248.034057 393.653804,254.331512 385.966924,254.331512 Z" fill="#74D7FF"></path>
                                <path d="M19.2061742,6.00157186 C12.2866593,6.00157186 6.62844542,11.667515 6.62844542,18.596482 L6.62844542,99.9511228 C46.2227122,68.1193862 86.3858875,36.8617515 126.950386,6.00157186 L19.2061742,6.00157186 Z" fill="#EDF7FF"></path>
                                <path d="M379.312018,6.00157186 L343.37817,6.00157186 L126.945976,6.00157186 C86.3814774,36.8617515 46.2183021,68.1193862 6.62403528,99.9511228 L6.62403528,185.364222 L6.62403528,216.113997 C6.62403528,223.042964 12.2866593,228.708907 19.2017641,228.708907 L379.307607,228.708907 C386.227122,228.708907 391.885339,223.038548 391.885339,216.113997 L391.885339,18.596482 C391.889746,11.667515 386.227122,6.00157186 379.312018,6.00157186 Z" fill="#D8ECFC"></path>
                            </g>
                        </g>
                        <ellipse id="Oval" fill="#1998FF" cx="199.259096" cy="239.877395" rx="3.47519294" ry="3.47994012"></ellipse>
                    </g>
                </g>
                <g id="Nature_1_" transform="translate(0.000000, 117.000000)">
                    <g id="Plant_6_" transform="translate(0.000000, 112.308511)">
                        <g id="Group">
                            <path d="M7.24774194,72.1637234 C6.57322581,71.5647447 5.86784946,70.8644681 5.77967742,69.966 C5.67387097,68.8737447 6.53354839,67.9180213 7.45935484,67.3234468 C9.86645161,65.7687447 12.8907527,65.6454255 15.6637634,64.9143191 C18.4367742,64.1832128 21.3684946,62.307 21.5624731,59.4530426 C21.9548387,53.6526383 11.9825806,48.7374894 8.28817204,45.6897447 C5.59892473,43.47 2.83473118,41.1533617 1.30053763,38.0263404 C-0.233655914,34.8993191 -0.189569892,30.7152766 2.35419355,28.3325745 C5.50634409,25.3773191 18.8864516,27.9405957 22.3868817,25.3993404 C26.9189247,22.1093617 -2.97580645,13.5651064 21.8975269,10.0593191 C16.4176344,-4.58923404 32.6060215,0.34793617 36.2475269,4.02108511 C38.584086,6.3773617 44.8266667,13.9174468 47.7760215,12.3891702 C49.1382796,11.6844894 55.9583871,13.437383 56.9062366,12.2262128 C60.7813978,7.28023404 52.5813978,12.0544468 57.9995699,8.92742553 C64.2112903,20.8497447 55.1031183,37.1851277 54.3007527,49.5831064 C53.8995699,55.8063191 61.3677419,56.5418298 61.5969892,63.3023617 C61.7336559,67.292617 60.0804301,71.0978936 58.4624731,74.7490213 C56.3419355,79.5320426 53.8731183,84.6850213 49.1603226,86.9708298 C45.1969892,88.8954894 40.4930108,88.3317447 36.2078495,87.3011489 C25.5037634,84.7246596 15.4609677,79.4747872 7.24774194,72.1637234 Z" id="Path" fill="#5A54FF"></path>
                            <path d="M52.5990323,94.4756809 C52.2551613,94.4756809 51.9377419,94.2598723 51.8187097,93.9207447 L28.6911828,26.8307234 C28.5412903,26.3991064 28.7705376,25.9322553 29.2025806,25.7825106 C29.6346237,25.632766 30.1019355,25.8617872 30.251828,26.2934043 L53.3793548,93.3834255 C53.5292473,93.8150426 53.3,94.2818936 52.867957,94.4316383 C52.7797849,94.4624681 52.6872043,94.4756809 52.5990323,94.4756809 Z" id="Path" fill="#FFFFFF"></path>
                            <path d="M36.8955914,48.9136596 C36.7897849,48.9136596 36.6795699,48.8916383 36.5737634,48.8475957 C17.0172043,40.6028298 17.0304301,40.1712128 17.0612903,39.4577234 C17.0745161,39.1141915 17.3213978,38.7882766 17.652043,38.6825745 C18.0267742,38.5592553 18.427957,38.7178085 18.6219355,39.0437234 C20.1693548,40.0214681 30.6970968,44.5798723 37.2174194,47.3325319 C37.6362366,47.5087021 37.8346237,47.9931702 37.6582796,48.4115745 C37.5216129,48.7242766 37.2174194,48.9136596 36.8955914,48.9136596 Z" id="Path" fill="#FFFFFF"></path>
                        </g>
                        <path d="M48.1463441,81.5624043 C48.0537634,81.5624043 47.9611828,81.5447872 47.8686022,81.5139574 C47.6878495,81.4478936 22.3119355,72.5160638 22.3119355,72.5160638 L22.8586022,70.9613617 C48.5960215,80.0209149 48.5960215,80.0209149 48.7282796,80.1574468 C49.0016129,80.4305106 49.0501075,80.8533191 48.8429032,81.1836383 C48.6930108,81.4214681 48.424086,81.5624043 48.1463441,81.5624043 Z" id="Path" fill="#FFFFFF"></path>
                    </g>
                    <g id="Plant_5_" transform="translate(126.086022, 0.000000)">
                        <path d="M74.298172,171.360766 C76.1674194,169.982234 78.2086022,168.295404 78.3408602,165.978766 C78.4819355,163.507979 76.1321505,161.380723 73.6677419,161.147298 C71.1989247,160.913872 68.7962366,162.182298 67.0063441,163.899957 C65.0356989,155.893021 79.8441935,151.594468 78.6009677,143.446596 C74.7037634,142.094489 70.0086022,143.556702 67.5706452,146.886319 C64.9122581,140.680723 69.0387097,133.78366 73.2489247,128.502957 C77.4591398,123.222255 82.2424731,117.126766 80.9463441,110.502766 C77.1946237,109.903787 73.1960215,111.062106 70.3480645,113.576936 C68.536129,110.590851 68.2143011,106.745936 69.5016129,103.5 C70.2775269,101.540106 71.6309677,99.6286596 71.317957,97.5454468 C70.6787097,93.2689149 64.5992473,93.0751277 60.3802151,94.0440638 C61.001828,84.1697234 52.6166667,74.6080851 42.7369892,73.9254255 C38.3636559,73.6215319 32.9454839,76.0923191 33.1262366,80.4701489 C33.187957,82.0116383 33.9594624,83.4165957 34.6163441,84.8083404 C37.5833333,91.115234 38.4386022,98.3954681 37.0146237,105.21766 C35.7493548,111.282319 32.866129,118.038447 36.2695699,123.217851 C37.3673118,124.891468 39.0249462,126.151085 40.0874194,127.851128 C41.3350538,129.841851 41.6612903,132.250979 41.9610753,134.576426 C43.5173118,146.688128 41.9478495,169.096979 49.997957,179.077021 C57.876129,188.84566 75.0917204,176.12617 82.4452688,170.678106 C94.0927957,162.054574 103.126022,148.577553 102.623441,134.10517 C102.592581,133.237532 102.486774,132.281809 101.843118,131.700447 C101.133333,131.057426 100.048817,131.119085 99.0965591,131.220383 C94.8290323,131.674021 90.5570968,132.123255 86.2895699,132.576894 C88.4012903,121.557447 101.181828,113.960106 100.688065,102.751277 C97.6417204,102.420957 94.5909677,102.090638 91.5446237,101.760319 C94.0443011,97.6995957 96.5924731,93.4979362 97.3022581,88.785383 C98.012043,84.0728298 96.4073118,78.6732128 92.2588172,76.3257447 C86.1925806,72.8948298 78.8346237,77.3387234 73.3326882,81.593234 C85.2315054,72.278234 95.1023656,10.0725319 67.5486022,23.7565532 C64.5198925,25.2628085 60.9930108,26.4563617 57.8055914,25.3332766 C50.1258065,22.6290638 57.1354839,10.314766 53.1280645,4.75219149 C51.7084946,2.77908511 49.4248387,1.57231915 47.0794624,0.933702128 C41.6348387,-0.55493617 35.4848387,0.841212766 31.2217204,4.53638298 C26.9586022,8.23155319 24.7013978,14.111234 25.4023656,19.7090426 C25.9225806,23.8490426 27.9152688,27.6367021 29.7448387,31.3891277 C35.6567742,43.5096383 -14.5616129,10.9798085 4.48795699,55.7710851 C-3.0816129,50.6445319 26.5882796,60.6377872 17.5594624,62.0911915 C8.53064516,63.5445957 0.189569892,71.432617 0.661290323,80.558234 C1.10215054,88.9879787 8.2044086,95.2992766 14.4954839,100.932319 C20.7909677,106.565362 27.3024731,113.924872 26.0239785,122.270936 C25.2877419,127.062766 22.0650538,131.057426 20.2222581,135.545362 C18.3750538,140.028894 18.4852688,146.216872 22.7175269,148.590766 C25.1907527,149.978106 28.4883871,149.669809 30.6221505,151.537213 C32.6016129,153.268085 32.8396774,156.188106 33.21,158.791021 C34.484086,167.758085 40.2373118,180.05917 48.6180645,184.652809 C56.624086,189.013021 67.306129,176.526957 74.298172,171.360766 Z" id="Path" fill="#FAE026"></path>
                        <g id="Group" transform="translate(44.526882, 43.161702)" fill="#FFFFFF">
                            <path d="M27.082043,143.464213 C26.694086,143.464213 26.3458065,143.186745 26.2708602,142.794766 L6.05301075,36.1545319 C5.96924731,35.7052979 6.26462366,35.2736809 6.70989247,35.19 C7.1683871,35.1063191 7.5916129,35.4014043 7.67537634,35.846234 L27.8932258,142.486468 C27.9769892,142.935702 27.6816129,143.367319 27.2363441,143.451 C27.1834409,143.459809 27.1305376,143.464213 27.082043,143.464213 Z" id="Path"></path>
                            <path d="M17.1670968,91.1680851 C17.0172043,91.1680851 16.8673118,91.1284468 16.7306452,91.044766 C16.3426882,90.8025319 16.2236559,90.2960426 16.466129,89.9084681 L35.1894624,59.7393191 C35.4319355,59.3517447 35.9389247,59.2328298 36.3268817,59.4750638 C36.7148387,59.7172979 36.833871,60.2237872 36.5913978,60.6113617 L17.8680645,90.7805106 C17.7093548,91.0271489 17.4404301,91.1680851 17.1670968,91.1680851 Z" id="Path"></path>
                            <path d="M1.06247312,31.9969149 C0.912580645,31.9969149 0.762688172,31.9572766 0.626021505,31.8735957 C0.238064516,31.6313617 0.119032258,31.1248723 0.361505376,30.7372979 L19.0848387,0.568148936 C19.3273118,0.180574468 19.8343011,0.0616595745 20.2222581,0.303893617 C20.6102151,0.54612766 20.7292473,1.05261702 20.4867742,1.44019149 L1.76344086,31.6093404 C1.60913978,31.860383 1.34021505,31.9969149 1.06247312,31.9969149 Z" id="Path"></path>
                        </g>
                    </g>
                    <g id="Plant_2_" transform="translate(322.268817, 44.923404)">
                        <path d="M6.05741935,79.9680638 C6.99204301,79.3338511 8.01924731,78.849383 9.11258065,78.5631064 C13.6710753,77.3695532 18.405914,79.7434468 22.1091398,82.6502553 C25.8167742,85.5570638 29.132043,89.1245106 33.4745161,90.9522766 C35.4936559,91.8022979 38.6237634,91.6701702 38.9676344,89.5076809 C39.1263441,88.5035106 38.5355914,87.5477872 37.9492473,86.715383 C32.068172,78.3561064 24.0974194,72.1020638 16.8452688,65.0244255 C14.9054839,63.1305957 12.798172,60.5144681 13.8474194,58.0172553 C14.9716129,55.3350638 18.8952688,55.2293617 21.4478495,56.6211064 C24.0004301,58.0128511 25.9666667,60.3823404 28.6470968,61.5054255 C29.3480645,61.8005106 30.1195699,62.0031064 30.8646237,61.8533617 C32.2753763,61.5714894 33.1747312,60.065234 33.2452688,58.6294468 C33.6817204,49.7945106 22.5764516,43.6902128 18.7365591,36.7711277 C15.4609677,30.8650213 15.4697849,23.7301277 16.0252688,17.0004255 C16.4617204,11.7461489 17.3302151,6.1703617 20.821828,2.21974468 C21.6109677,1.32568085 22.6117204,0.497680851 23.7976344,0.414 C28.3208602,0.0792765957 29.2202151,10.557 31.9491398,13.2920426 C34.4311828,15.7760426 37.8522581,17.405617 39.5672043,20.4665745 C41.731828,24.3291064 40.4930108,29.1429574 41.1322581,33.5251915 C42.1506452,40.5323617 48.5739785,41.7743617 50.8223656,46.9493617 C50.884086,42.9458936 50.8973118,38.8895745 50.928172,34.8640851 C50.9369892,33.5824468 51.0119355,32.1422553 51.9597849,31.274617 C54.0230108,29.3807872 57.1663441,32.2875957 57.7570968,35.0226383 C58.5374194,38.6209149 57.8232258,42.3601277 57.8673118,46.0420851 C57.9113978,49.7240426 59.0135484,53.8111915 62.1921505,55.6785957 C65.6969892,57.735383 70.1055914,56.2907872 73.9895699,55.0928298 C77.8735484,53.8948723 82.7141935,53.2298298 85.4519355,56.2335319 C86.5276344,57.4094681 87.0654839,58.9817872 87.3696774,60.5452979 C89.9354839,73.7977021 77.4415054,86.9928511 81.2813978,99.9325532 C84.7245161,111.533362 92.2544086,118.249851 80.2497849,127.868745 C75.3297849,131.810553 69.8807527,133.713191 63.5676344,132.277404 C58.7358065,131.180745 54.3668817,128.665915 50.0023656,126.327255 C40.9867742,121.504596 30.8337634,119.443404 21.3111828,115.752638 C14.6674194,113.176149 8.18236559,109.463362 4.06913978,103.64534 C-0.0440860215,97.8273191 -1.26086022,89.5649362 2.58784946,83.5707447 C3.4916129,82.161383 4.67311828,80.9061702 6.05741935,79.9680638 Z" id="Path" fill="#F44E4E"></path>
                        <path d="M72.4730108,132.898404 C72.1467742,132.898404 71.838172,132.704617 71.7103226,132.387511 L30.7676344,32.6267234 C30.5956989,32.2039149 30.7984946,31.7238511 31.2173118,31.5520851 C31.636129,31.3803191 32.1254839,31.5785106 32.2930108,32.0013191 L73.2356989,131.762106 C73.4076344,132.184915 73.2048387,132.664979 72.7860215,132.836745 C72.6846237,132.876383 72.5788172,132.898404 72.4730108,132.898404 Z" id="Path" fill="#FFFFFF"></path>
                        <path d="M64.3082796,112.995574 C64.2509677,112.995574 64.1936559,112.99117 64.1319355,112.977957 L23.3744086,104.222298 C22.9291398,104.125404 22.6469892,103.689383 22.7395699,103.244553 C22.8365591,102.799723 23.2730108,102.517851 23.7226882,102.61034 L64.4802151,111.366 C64.9254839,111.462894 65.2076344,111.898915 65.1150538,112.343745 C65.0312903,112.731319 64.6874194,112.995574 64.3082796,112.995574 Z" id="Path" fill="#FFFFFF"></path>
                        <path d="M48.9354839,75.5461915 C48.8473118,75.5461915 48.7503226,75.5329787 48.6621505,75.4977447 L32.9102151,69.948383 C32.478172,69.7986383 32.2533333,69.327383 32.4032258,68.895766 C32.5531183,68.4685532 33.0292473,68.2439362 33.4568817,68.3936809 L49.2088172,73.9430426 C49.6408602,74.0927872 49.8656989,74.5640426 49.7158065,74.9956596 C49.5967742,75.330383 49.2749462,75.5461915 48.9354839,75.5461915 Z" id="Path" fill="#FFFFFF"></path>
                        <path d="M53.6086022,86.9267872 C53.5336559,86.9267872 53.4543011,86.9179787 53.3793548,86.8915532 C52.9384946,86.7638298 52.6872043,86.3057872 52.8150538,85.869766 L58.8680645,65.0860851 C58.995914,64.6500638 59.45,64.3902128 59.8908602,64.5223404 C60.3317204,64.6500638 60.5830108,65.1081064 60.4551613,65.5441277 L54.4021505,86.3278085 C54.2963441,86.6933617 53.9656989,86.9267872 53.6086022,86.9267872 Z" id="Path" fill="#FFFFFF"></path>
                    </g>
                </g>
                <g id="UI_1_" transform="translate(36.000000, 66.000000)">
                    <g id="Line_1_" transform="translate(26.033573, 18.953947)">
                        <g id="Group">
                            <path d="M0.931031175,120.935 C0.472134293,120.935 0.105899281,120.564737 0.105899281,120.110724 L0.105899281,117.633487 C0.105899281,117.175066 0.476546763,116.809211 0.931031175,116.809211 C1.38551559,116.809211 1.75616307,117.179474 1.75616307,117.633487 L1.75616307,120.110724 C1.75616307,120.564737 1.38992806,120.935 0.931031175,120.935 Z" id="Path" fill="#1998FF"></path>
                            <path d="M0.931031175,113.423947 C0.472134293,113.423947 0.105899281,113.053684 0.105899281,112.599671 L0.105899281,107.565855 C0.105899281,107.107434 0.476546763,106.741579 0.931031175,106.741579 C1.38551559,106.741579 1.75616307,107.111842 1.75616307,107.565855 L1.75616307,112.599671 C1.75616307,113.053684 1.38992806,113.423947 0.931031175,113.423947 Z M0.931031175,103.356316 C0.472134293,103.356316 0.105899281,102.986053 0.105899281,102.532039 L0.105899281,97.4982237 C0.105899281,97.0398026 0.476546763,96.6739474 0.931031175,96.6739474 C1.38551559,96.6739474 1.75616307,97.0442105 1.75616307,97.4982237 L1.75616307,102.532039 C1.75616307,102.986053 1.38992806,103.356316 0.931031175,103.356316 Z M0.931031175,93.2886842 C0.472134293,93.2886842 0.105899281,92.9184211 0.105899281,92.4644079 L0.105899281,87.4305921 C0.105899281,86.9721711 0.476546763,86.6063158 0.931031175,86.6063158 C1.38551559,86.6063158 1.75616307,86.9765789 1.75616307,87.4305921 L1.75616307,92.4644079 C1.75616307,92.9184211 1.38992806,93.2886842 0.931031175,93.2886842 Z M0.931031175,83.2210526 C0.472134293,83.2210526 0.105899281,82.8507895 0.105899281,82.3967763 L0.105899281,77.3585526 C0.105899281,76.9001316 0.476546763,76.5342763 0.931031175,76.5342763 C1.38551559,76.5342763 1.75616307,76.9045395 1.75616307,77.3585526 L1.75616307,82.3923684 C1.75616307,82.8507895 1.38992806,83.2210526 0.931031175,83.2210526 Z M0.931031175,73.1534211 C0.472134293,73.1534211 0.105899281,72.7831579 0.105899281,72.3291447 L0.105899281,67.2953289 C0.105899281,66.8369079 0.476546763,66.4710526 0.931031175,66.4710526 C1.38551559,66.4710526 1.75616307,66.8413158 1.75616307,67.2953289 L1.75616307,72.3291447 C1.75616307,72.7831579 1.38992806,73.1534211 0.931031175,73.1534211 Z M0.931031175,63.0857895 C0.472134293,63.0857895 0.105899281,62.7155263 0.105899281,62.2615132 L0.105899281,57.2276974 C0.105899281,56.7692763 0.476546763,56.4034211 0.931031175,56.4034211 C1.38551559,56.4034211 1.75616307,56.7736842 1.75616307,57.2276974 L1.75616307,62.2615132 C1.75616307,62.7155263 1.38992806,63.0857895 0.931031175,63.0857895 Z M0.931031175,53.0181579 C0.472134293,53.0181579 0.105899281,52.6478947 0.105899281,52.1938816 L0.105899281,47.1600658 C0.105899281,46.7016447 0.476546763,46.3357895 0.931031175,46.3357895 C1.38551559,46.3357895 1.75616307,46.7060526 1.75616307,47.1600658 L1.75616307,52.1938816 C1.75616307,52.6478947 1.38992806,53.0181579 0.931031175,53.0181579 Z M0.931031175,42.9505263 C0.472134293,42.9505263 0.105899281,42.5802632 0.105899281,42.12625 L0.105899281,37.0924342 C0.105899281,36.6340132 0.476546763,36.2681579 0.931031175,36.2681579 C1.38551559,36.2681579 1.75616307,36.6384211 1.75616307,37.0924342 L1.75616307,42.12625 C1.75616307,42.5802632 1.38992806,42.9505263 0.931031175,42.9505263 Z M0.931031175,32.8828947 C0.472134293,32.8828947 0.105899281,32.5126316 0.105899281,32.0586184 L0.105899281,27.0203947 C0.105899281,26.5619737 0.476546763,26.1961184 0.931031175,26.1961184 C1.38551559,26.1961184 1.75616307,26.5663816 1.75616307,27.0203947 L1.75616307,32.0542105 C1.75616307,32.5126316 1.38992806,32.8828947 0.931031175,32.8828947 Z M0.931031175,22.8152632 C0.472134293,22.8152632 0.105899281,22.445 0.105899281,21.9909868 L0.105899281,17.8211184 C0.0970743405,17.8034868 0.0573621103,17.4949342 0.0264748201,17.0144737 C-0.00441247002,16.5604605 0.344172662,16.1681579 0.798657074,16.1373026 C1.24872902,16.1108553 1.64585132,16.4546711 1.67673861,16.9086842 C1.7076259,17.3803289 1.74733813,17.6580263 1.74733813,17.6756579 L1.75616307,21.9909868 C1.75616307,22.445 1.38992806,22.8152632 0.931031175,22.8152632 Z M1.21342926,12.7740789 C1.15606715,12.7740789 1.09870504,12.7696711 1.04134293,12.7564474 C0.595683453,12.6594737 0.308872902,12.2230921 0.405947242,11.7778947 C0.798657074,9.93980263 1.46052758,8.28243421 2.37390887,6.85427632 C2.62100719,6.47078947 3.13285372,6.35618421 3.51673861,6.60302632 C3.9006235,6.84986842 4.01534772,7.35677632 3.7682494,7.74467105 C2.96076739,9.00973684 2.37390887,10.4819737 2.02532374,12.1261184 C1.93707434,12.5051974 1.59290168,12.7740789 1.21342926,12.7740789 Z M6.58781775,4.57980263 C6.31865707,4.57980263 6.0494964,4.44756579 5.89064748,4.20072368 C5.64354916,3.81723684 5.75386091,3.30592105 6.1377458,3.05907895 C7.54532374,2.15105263 9.19558753,1.47664474 11.0355875,1.05789474 C11.4724221,0.947697368 11.922494,1.23421053 12.0239808,1.67940789 C12.1254676,2.12460526 11.847482,2.56539474 11.4018225,2.66677632 C9.74714628,3.04144737 8.27779376,3.64092105 7.03347722,4.44756579 C6.89669065,4.53572368 6.7422542,4.57980263 6.58781775,4.57980263 Z M16.2158273,2.15986842 C15.7701679,2.15986842 15.3995204,1.80282895 15.3906954,1.35322368 C15.377458,0.899210526 15.7392806,0.520131579 16.1981775,0.506907895 C17.8925659,0.462828947 19.5781295,0.431973684 21.2460432,0.401118421 C21.779952,0.414342105 22.08,0.758157895 22.0844125,1.21217105 C22.0932374,1.67059211 21.7270024,2.04526316 21.272518,2.04967105 C19.6134293,2.07611842 17.9322782,2.11138158 16.2423022,2.15546053 C16.2290647,2.15986842 16.2246523,2.15986842 16.2158273,2.15986842 Z M41.4110312,2.04085526 C41.4066187,2.04085526 41.4022062,2.04085526 41.3977938,2.04085526 C39.888729,2.01881579 38.198753,2.00559211 36.3631655,1.99236842 C35.9042686,1.98796053 35.5380336,1.61769737 35.5424066,1.16368421 C35.5468585,0.709671053 35.9748681,0.383486842 36.3719904,0.343815789 C38.2075779,0.357039474 39.9063789,0.370263158 41.4198561,0.392302632 C41.8743405,0.396710526 42.2405755,0.771381579 42.2362025,1.22980263 C42.2317506,1.67940789 41.8655156,2.04085526 41.4110312,2.04085526 Z M26.2939089,2.00118421 C25.8394245,2.00118421 25.4687375,1.63532895 25.4687375,1.18131579 C25.4643645,0.727302632 25.8305995,0.352631579 26.2894964,0.348223684 C28.0235971,0.335 29.7135731,0.326184211 31.3373621,0.326184211 C31.796259,0.326184211 32.162494,0.696447368 32.162494,1.15046053 C32.162494,1.60888158 31.7918465,1.97473684 31.3373621,1.97473684 C29.7179856,1.97473684 28.0324221,1.97914474 26.3027338,1.99677632 C26.2983213,2.00118421 26.2983213,2.00118421 26.2939089,2.00118421 Z" id="Shape" fill="#1998FF"></path>
                            <path d="M48.9607674,2.18190789 C48.9519424,2.18190789 48.94753,2.18190789 48.938705,2.18190789 C48.938705,2.18190789 48.0473861,2.15986842 46.4677218,2.12460526 C46.0132374,2.11578947 45.6470024,1.73671053 45.6558273,1.28269737 C45.6646523,0.828684211 46.0882494,0.506907895 46.4986091,0.471644737 C48.0826859,0.5025 48.9784173,0.528947368 48.9784173,0.528947368 C49.4329017,0.542171053 49.7947242,0.92125 49.7814868,1.37526316 C49.7726619,1.82486842 49.4064269,2.18190789 48.9607674,2.18190789 Z" id="Path" fill="#4B369D"></path>
                        </g>
                        <g id="Group" transform="translate(64.422062, 207.611842)" fill="#1998FF">
                            <path d="M188.928729,4.35940789 C188.478657,4.35940789 188.112422,4.00236842 188.103597,3.55276316 C188.068297,1.98796053 188.041823,1.08875 188.041823,1.08875 C188.028585,0.634736842 188.385995,0.25125 188.844892,0.238026316 C189.268489,0.242434211 189.683261,0.581842105 189.696499,1.04026316 C189.696499,1.04026316 189.722974,1.94388158 189.758273,3.52190789 C189.767098,3.97592105 189.405276,4.355 188.950791,4.36381579 C188.941966,4.35940789 188.933141,4.35940789 188.928729,4.35940789 Z" id="Path"></path>
                            <path d="M175.797218,41.2931579 C174.649976,41.2931579 173.908681,41.1917763 173.877794,41.1917763 L171.720096,41.2005921 C171.261199,41.2005921 170.894964,40.8303289 170.894964,40.3763158 C170.894964,39.9178947 171.265612,39.5520395 171.720096,39.5520395 L173.992518,39.5520395 C174.138129,39.5608553 175.135348,39.6930921 176.595875,39.6313816 C177.05036,39.6181579 177.438657,39.9663816 177.456307,40.4203947 C177.478369,40.8744079 177.120959,41.2623026 176.666475,41.2799342 C176.353189,41.28875 176.061966,41.2931579 175.797218,41.2931579 Z M166.804604,41.1961842 L161.893525,41.1961842 C161.434628,41.1961842 161.068393,40.8259211 161.068393,40.3719079 C161.068393,39.9134868 161.439041,39.5476316 161.893525,39.5476316 L166.804604,39.5476316 C167.263501,39.5476316 167.629736,39.9178947 167.629736,40.3719079 C167.629736,40.8259211 167.259089,41.1961842 166.804604,41.1961842 Z M156.978034,41.1961842 L152.066954,41.1961842 C151.608058,41.1961842 151.241823,40.8259211 151.241823,40.3719079 C151.241823,39.9134868 151.61247,39.5476316 152.066954,39.5476316 L156.978034,39.5476316 C157.43693,39.5476316 157.803204,39.9178947 157.803204,40.3719079 C157.807578,40.8259211 157.43693,41.1961842 156.978034,41.1961842 Z M147.155875,41.1961842 L142.244796,41.1961842 C141.785899,41.1961842 141.419664,40.8259211 141.419664,40.3719079 C141.419664,39.9134868 141.790312,39.5476316 142.244796,39.5476316 L147.155875,39.5476316 C147.614772,39.5476316 147.981046,39.9178947 147.981046,40.3719079 C147.98542,40.8259211 147.614772,41.1961842 147.155875,41.1961842 Z M137.333717,41.1961842 L132.422638,41.1961842 C131.963741,41.1961842 131.597506,40.8259211 131.597506,40.3719079 C131.597506,39.9134868 131.968153,39.5476316 132.422638,39.5476316 L137.333717,39.5476316 C137.792614,39.5476316 138.158849,39.9178947 138.158849,40.3719079 C138.158849,40.8259211 137.788201,41.1961842 137.333717,41.1961842 Z M127.511559,41.1961842 L122.60048,41.1961842 C122.141583,41.1961842 121.775348,40.8259211 121.775348,40.3719079 C121.775348,39.9134868 122.145995,39.5476316 122.60048,39.5476316 L127.511559,39.5476316 C127.970456,39.5476316 128.336691,39.9178947 128.336691,40.3719079 C128.336691,40.8259211 127.966043,41.1961842 127.511559,41.1961842 Z M117.684988,41.1961842 L112.773909,41.1961842 C112.315012,41.1961842 111.948777,40.8259211 111.948777,40.3719079 C111.948777,39.9134868 112.319424,39.5476316 112.773909,39.5476316 L117.684988,39.5476316 C118.143885,39.5476316 118.510159,39.9178947 118.510159,40.3719079 C118.514532,40.8259211 118.143885,41.1961842 117.684988,41.1961842 Z M107.86283,41.1961842 L102.951751,41.1961842 C102.492854,41.1961842 102.126619,40.8259211 102.126619,40.3719079 C102.126619,39.9134868 102.497266,39.5476316 102.951751,39.5476316 L107.86283,39.5476316 C108.321727,39.5476316 108.687962,39.9178947 108.687962,40.3719079 C108.687962,40.8259211 108.321727,41.1961842 107.86283,41.1961842 Z M98.0406715,41.1961842 L93.1295923,41.1961842 C92.6706954,41.1961842 92.3044604,40.8259211 92.3044604,40.3719079 C92.3044604,39.9134868 92.6751079,39.5476316 93.1295923,39.5476316 L98.0406715,39.5476316 C98.4995683,39.5476316 98.8658034,39.9178947 98.8658034,40.3719079 C98.8658034,40.8259211 98.4951559,41.1961842 98.0406715,41.1961842 Z M88.2141007,41.1961842 L83.3030216,41.1961842 C82.8441247,41.1961842 82.4778897,40.8259211 82.4778897,40.3719079 C82.4778897,39.9134868 82.8485372,39.5476316 83.3030216,39.5476316 L88.2141007,39.5476316 C88.6729976,39.5476316 89.0392716,39.9178947 89.0392716,40.3719079 C89.0436451,40.8259211 88.6729976,41.1961842 88.2141007,41.1961842 Z M78.3919424,41.1961842 L73.4808633,41.1961842 C73.0219664,41.1961842 72.6557314,40.8259211 72.6557314,40.3719079 C72.6557314,39.9134868 73.0263789,39.5476316 73.4808633,39.5476316 L78.3919424,39.5476316 C78.8508393,39.5476316 79.2170743,39.9178947 79.2170743,40.3719079 C79.2170743,40.8259211 78.8508393,41.1961842 78.3919424,41.1961842 Z M68.5697842,41.1961842 L63.658705,41.1961842 C63.1998082,41.1961842 62.8335731,40.8259211 62.8335731,40.3719079 C62.8335731,39.9134868 63.2042206,39.5476316 63.658705,39.5476316 L68.5697842,39.5476316 C69.0286811,39.5476316 69.3949161,39.9178947 69.3949161,40.3719079 C69.3949161,40.8259211 69.0242686,41.1961842 68.5697842,41.1961842 Z M58.7432134,41.1961842 L53.8321343,41.1961842 C53.3732374,41.1961842 53.0070024,40.8259211 53.0070024,40.3719079 C53.0070024,39.9134868 53.3776499,39.5476316 53.8321343,39.5476316 L58.7432134,39.5476316 C59.2021103,39.5476316 59.5683843,39.9178947 59.5683843,40.3719079 C59.5727578,40.8259211 59.2021103,41.1961842 58.7432134,41.1961842 Z M48.9210552,41.1961842 L44.009976,41.1961842 C43.5510791,41.1961842 43.1848441,40.8259211 43.1848441,40.3719079 C43.1848441,39.9134868 43.5554916,39.5476316 44.009976,39.5476316 L48.9210552,39.5476316 C49.379952,39.5476316 49.7461871,39.9178947 49.7461871,40.3719079 C49.7461871,40.8259211 49.379952,41.1961842 48.9210552,41.1961842 Z M39.0988969,41.1961842 L34.1878177,41.1961842 C33.7289209,41.1961842 33.3626859,40.8259211 33.3626859,40.3719079 C33.3626859,39.9134868 33.7333333,39.5476316 34.1878177,39.5476316 L39.0988969,39.5476316 C39.5577938,39.5476316 39.9240288,39.9178947 39.9240288,40.3719079 C39.9240288,40.8259211 39.5533813,41.1961842 39.0988969,41.1961842 Z M29.2767386,41.1961842 L24.3656595,41.1961842 C23.9067626,41.1961842 23.5405276,40.8259211 23.5405276,40.3719079 C23.5405276,39.9134868 23.9111751,39.5476316 24.3656595,39.5476316 L29.2767386,39.5476316 C29.7356355,39.5476316 30.1018705,39.9178947 30.1018705,40.3719079 C30.1018705,40.8259211 29.731223,41.1961842 29.2767386,41.1961842 Z M19.4501679,41.1961842 L14.5390887,41.1961842 C14.0801918,41.1961842 13.7139568,40.8259211 13.7139568,40.3719079 C13.7139568,39.9134868 14.0846043,39.5476316 14.5390887,39.5476316 L19.4501679,39.5476316 C19.9090647,39.5476316 20.2752998,39.9178947 20.2752998,40.3719079 C20.2752998,40.8259211 19.9090647,41.1961842 19.4501679,41.1961842 Z M9.63242206,40.8655921 C9.58829736,40.8655921 9.54858513,40.8611842 9.50446043,40.8567763 C7.58503597,40.5570395 5.92594724,40.0809868 4.56690647,39.4506579 C4.15213429,39.2567105 3.97563549,38.7674342 4.1653717,38.3530921 C4.35510791,37.93875 4.84489209,37.7624342 5.26407674,37.9519737 C6.48191847,38.5161842 7.99539568,38.94375 9.76038369,39.2214474 C10.2104556,39.2919737 10.5193285,39.7151316 10.448729,40.1647368 C10.382542,40.5746711 10.0295444,40.8655921 9.63242206,40.8655921 Z M181.44518,40.3851316 C181.10542,40.3851316 180.787722,40.1735526 180.664173,39.8341447 C180.509736,39.4021711 180.739185,38.9305263 181.167194,38.7806579 C182.698321,38.2384868 183.991175,37.4538816 185.019281,36.4400658 C185.345803,36.1182895 185.866475,36.1226974 186.188585,36.4444737 C186.510695,36.7706579 186.506283,37.2907895 186.184173,37.6125658 C184.983981,38.7982895 183.479329,39.7151316 181.718753,40.3366447 C181.626091,40.3675 181.533429,40.3851316 181.44518,40.3851316 Z M1.40757794,36.26375 C1.08105516,36.26375 0.772182254,36.0698026 0.644220624,35.7524342 C0.467721823,35.3204605 0.344172662,34.8620395 0.277985612,34.3859868 L0.269160671,30.5775658 C0.269160671,30.1191447 0.639808153,29.7532895 1.09429257,29.7532895 C1.54877698,29.7532895 1.91942446,30.1235526 1.91942446,30.5775658 L1.91942446,34.2713816 C1.95913669,34.4961842 2.04297362,34.8179605 2.16652278,35.1221053 C2.33860911,35.5452632 2.13563549,36.0257237 1.71645084,36.1976316 C1.6193765,36.2417105 1.51347722,36.26375 1.40757794,36.26375 Z M188.134484,33.7115789 C188.046235,33.7115789 187.957986,33.6983553 187.874149,33.6675 C187.441727,33.5220395 187.207866,33.0548026 187.353477,32.6228289 C187.763837,31.3886184 187.997698,29.9825 188.041823,28.4397368 L188.05506,28.0342105 C188.068297,27.5801974 188.48307,27.2231579 188.906667,27.2319737 C189.361151,27.2451974 189.722974,27.6242763 189.709736,28.0826974 L189.696499,28.4882237 C189.643549,30.1940789 189.383213,31.7588816 188.919904,33.1429605 C188.800767,33.4911842 188.478657,33.7115789 188.134484,33.7115789 Z M188.986091,23.9789474 C188.981679,23.9789474 188.977266,23.9789474 188.972854,23.9789474 C188.518369,23.9701316 188.152134,23.5954605 188.160959,23.1414474 C188.187434,21.4708553 188.205084,19.8267105 188.213909,18.2442763 C188.218321,17.7902632 188.584556,17.4244079 189.039041,17.4244079 C189.039041,17.4244079 189.043453,17.4244079 189.043453,17.4244079 C189.50235,17.4288158 189.868585,17.7990789 189.864173,18.2530921 C189.855348,19.8443421 189.837698,21.4884868 189.811223,23.1678947 C189.806811,23.6175 189.440576,23.9789474 188.986091,23.9789474 Z M189.047866,14.1669737 C188.593381,14.1669737 188.222734,13.8011184 188.222734,13.3426974 C188.218321,11.5663158 188.200671,9.91776316 188.183022,8.44111842 C188.178609,7.98710526 188.544844,7.61243421 188.999329,7.60361842 C189.392038,7.57717105 189.828873,7.96506579 189.837698,8.41907895 C189.855348,9.90013158 189.868585,11.5530921 189.87741,13.3338816 C189.87741,13.7923026 189.506763,14.1669737 189.047866,14.1669737 C189.047866,14.1669737 189.047866,14.1669737 189.047866,14.1669737 Z" id="Shape"></path>
                            <path d="M1.09870504,26.4605921 C0.639808153,26.4605921 0.273573141,26.0903289 0.273573141,25.6363158 L0.273573141,23.1590789 C0.273573141,22.7006579 0.644220624,22.3348026 1.09870504,22.3348026 C1.55318945,22.3348026 1.92383693,22.7050658 1.92383693,23.1590789 L1.92383693,25.6363158 C1.9282494,26.0903289 1.55760192,26.4605921 1.09870504,26.4605921 Z" id="Path"></path>
                        </g>
                    </g>
                    <g id="Button_1_" transform="translate(57.362110, 0.000000)">
                        <path d="M115.24048,39.7856579 L19.9752518,39.7856579 C9.14263789,39.7856579 0.277985612,30.9301974 0.277985612,20.1088158 L0.277985612,20.1088158 C0.277985612,9.28743421 9.14263789,0.431973684 19.9752518,0.431973684 L115.24048,0.431973684 C126.073094,0.431973684 134.937747,9.28743421 134.937747,20.1088158 L134.937747,20.1088158 C134.942158,30.9301974 126.077506,39.7856579 115.24048,39.7856579 Z" id="Path" fill="#1998FF"></path>
                        <g id="Group" transform="translate(98.398082, 10.138158)" fill="#FFFFFF">
                            <path d="M14.2964029,1.28710526 C14.6935252,1.24743421 15.09506,1.22980263 15.4921823,1.23861842 C20.7694964,1.34881579 24.9789928,5.72585526 24.8686811,11.0021053 C24.7583693,16.2739474 20.3767866,20.4746711 15.09506,20.3688816 L15.1435971,18.0767763 C19.1589448,18.1605263 22.4903597,14.9648026 22.5741966,10.9580263 C22.6580336,6.94684211 19.4589928,3.61888158 15.4480576,3.53513158 C15.1480096,3.53072368 14.8391367,3.53953947 14.5346763,3.57480263 L14.2964029,1.28710526 Z" id="Path"></path>
                            <polygon id="Path" points="12.0019185 19.1567105 15.6466187 21.3606579 15.7348681 17.1070395"></polygon>
                            <path d="M10.5943405,20.2013816 C10.1972182,20.2410526 9.79568345,20.2586842 9.39856115,20.2498684 C4.121247,20.1396711 -0.0882494005,15.7626316 0.0220623501,10.4863816 C0.132374101,5.21453947 4.51395683,1.01381579 9.79568345,1.11960526 L9.74714628,3.41171053 C5.73179856,3.32796053 2.40038369,6.52368421 2.31654676,10.5304605 C2.23270983,14.5416447 5.4317506,17.8696053 9.44268585,17.9533553 C9.74273381,17.9577632 10.0516067,17.9489474 10.3560671,17.9136842 L10.5943405,20.2013816 Z" id="Path"></path>
                            <polygon id="Path" points="12.8888249 2.33177632 9.24853717 0.132236842 9.16028777 4.38144737"></polygon>
                        </g>
                    </g>
                    <g id="Laptop_1_" transform="translate(336.230216, 83.750000)">
                        <g id="Group">
                            <g>
                                <path d="M214.525468,167.173816 C213.951847,167.460329 213.056115,167.623421 211.745612,167.623421 C176.507626,167.619013 141.28729,167.610197 106.044892,167.707171 C88.395012,167.755658 70.7451319,167.627829 53.0952518,167.6675 C44.1820624,167.685132 35.2688729,167.75125 26.3556835,167.896711 C21.8990887,167.971645 17.442494,168.068618 12.9858993,168.192039 C9.70743405,168.284605 5.73179856,168.888487 2.61218225,167.526447 C1.54877698,167.063618 0.542733813,166.442105 0.119136691,165.296053 C0.0514453891,165.027171 0.0352997602,164.753882 0.0661870504,164.476184 C0.410359712,162.104737 4.05064748,158.12 5.48028777,156.158487 C8.41458034,152.125263 11.41506,147.739408 16.6791367,146.342105 C19.7413909,145.531053 22.9669065,145.544276 26.1482974,145.561908 C81.8910312,145.561908 137.633765,145.870461 193.376499,146.042368 C196.871175,146.051184 201.186571,146.566908 203.617842,149.233684 C206.706571,152.618947 209.429065,156.286316 211.930935,160.085921 C213.426763,162.355987 217.040576,165.926382 214.525468,167.173816 Z" id="Path" fill="#1998FF"></path>
                                <g transform="translate(8.383693, 0.000000)">
                                    <path d="M177.231271,148.427039 L20.1252758,148.427039 C9.21323741,148.427039 0.286810552,139.509868 0.286810552,128.609145 L0.286810552,20.1088158 C0.286810552,9.20809211 9.21323741,0.290921053 20.1252758,0.290921053 L177.231271,0.290921053 C188.143309,0.290921053 197.069736,9.20809211 197.069736,20.1088158 L197.069736,128.604737 C197.069736,139.509868 188.143309,148.427039 177.231271,148.427039 Z" id="Path" fill="#74D7FF"></path>
                                    <path d="M20.3944365,6.73085526 C11.8916067,6.73085526 4.93314149,13.6821053 4.93314149,22.1761184 L4.93314149,103.131513 C55.2529496,72.9638816 104.46964,41.0859868 151.991942,6.73526316 L20.3944365,6.73526316 L20.3944365,6.73085526 Z" id="Path" fill="#EDF7FF"></path>
                                    <path d="M176.114916,6.73085526 L151.996355,6.73085526 C104.46964,41.0815789 55.2573621,72.9638816 4.93755396,103.127105 L4.93755396,120.626447 C4.93755396,129.120461 11.8960192,136.071711 20.3988489,136.071711 L176.119329,136.071711 C184.622158,136.071711 191.580624,129.120461 191.580624,120.626447 L191.580624,22.1761184 C191.576211,13.6821053 184.617746,6.73085526 176.114916,6.73085526 Z" id="Path" fill="#D8ECFC"></path>
                                    <path d="M109.071847,141.669737 L95.2696403,141.669737 C94.9342926,141.669737 94.6607194,141.396447 94.6607194,141.061447 L94.6607194,141.061447 C94.6607194,140.726447 94.9342926,140.453158 95.2696403,140.453158 L109.071847,140.453158 C109.407194,140.453158 109.680819,140.726447 109.680819,141.061447 L109.680819,141.061447 C109.68518,141.396447 109.407194,141.669737 109.071847,141.669737 Z" id="Path" fill="#E3E5FC"></path>
                                    <ellipse id="Oval" fill="#E3E5FC" cx="19.0530456" cy="3.89657895" rx="1.37227818" ry="1.37085526"></ellipse>
                                    <ellipse id="Oval" fill="#FFFFFF" cx="24.9657554" cy="3.89657895" rx="1.37227818" ry="1.37085526"></ellipse>
                                    <ellipse id="Oval" fill="#1998FF" cx="30.9314149" cy="3.89657895" rx="1.37227818" ry="1.37085526"></ellipse>
                                </g>
                            </g>
                            <g transform="translate(17.208633, 152.072368)" fill="#E3E5FC" id="Path">
                                <path d="M6.60546763,3.61888158 L1.96354916,3.61888158 C0.997218225,3.61888158 0.207386091,2.82986842 0.207386091,1.86453947 L0.207386091,1.86453947 C0.207386091,0.899210526 0.997218225,0.110197368 1.96354916,0.110197368 L6.60546763,0.110197368 C7.57179856,0.110197368 8.36164899,0.899210526 8.36164899,1.86453947 L8.36164899,1.86453947 C8.36604317,2.82986842 7.57179856,3.61888158 6.60546763,3.61888158 Z"></path>
                                <path d="M20.1738129,3.61888158 L15.5318945,3.61888158 C14.5655635,3.61888158 13.7757314,2.82986842 13.7757314,1.86453947 L13.7757314,1.86453947 C13.7757314,0.899210526 14.5655635,0.110197368 15.5318945,0.110197368 L20.1738129,0.110197368 C21.1401439,0.110197368 21.929976,0.899210526 21.929976,1.86453947 L21.929976,1.86453947 C21.929976,2.82986842 21.1401439,3.61888158 20.1738129,3.61888158 Z"></path>
                                <path d="M33.7421583,3.61888158 L29.1002398,3.61888158 C28.1339089,3.61888158 27.3440767,2.82986842 27.3440767,1.86453947 L27.3440767,1.86453947 C27.3440767,0.899210526 28.1339089,0.110197368 29.1002398,0.110197368 L33.7421583,0.110197368 C34.7084892,0.110197368 35.4983213,0.899210526 35.4983213,1.86453947 L35.4983213,1.86453947 C35.4983213,2.82986842 34.7084892,3.61888158 33.7421583,3.61888158 Z"></path>
                                <path d="M47.3105036,3.61888158 L42.6685851,3.61888158 C41.7022542,3.61888158 40.9124221,2.82986842 40.9124221,1.86453947 L40.9124221,1.86453947 C40.9124221,0.899210526 41.7022542,0.110197368 42.6685851,0.110197368 L47.3105036,0.110197368 C48.2768345,0.110197368 49.0666667,0.899210526 49.0666667,1.86453947 L49.0666667,1.86453947 C49.0666667,2.82986842 48.2768345,3.61888158 47.3105036,3.61888158 Z"></path>
                                <path d="M60.8788489,3.61888158 L56.2369305,3.61888158 C55.2705995,3.61888158 54.4807674,2.82986842 54.4807674,1.86453947 L54.4807674,1.86453947 C54.4807674,0.899210526 55.2705995,0.110197368 56.2369305,0.110197368 L60.8788489,0.110197368 C61.8451799,0.110197368 62.635012,0.899210526 62.635012,1.86453947 L62.635012,1.86453947 C62.635012,2.82986842 61.8451799,3.61888158 60.8788489,3.61888158 Z"></path>
                                <path d="M74.4471942,3.61888158 L69.8052758,3.61888158 C68.8389448,3.61888158 68.0491127,2.82986842 68.0491127,1.86453947 L68.0491127,1.86453947 C68.0491127,0.899210526 68.8389448,0.110197368 69.8052758,0.110197368 L74.4471942,0.110197368 C75.4135252,0.110197368 76.2033573,0.899210526 76.2033573,1.86453947 L76.2033573,1.86453947 C76.2033573,2.82986842 75.4135252,3.61888158 74.4471942,3.61888158 Z"></path>
                                <path d="M88.0111271,3.61888158 L83.3692086,3.61888158 C82.4028777,3.61888158 81.6130456,2.82986842 81.6130456,1.86453947 L81.6130456,1.86453947 C81.6130456,0.899210526 82.4028777,0.110197368 83.3692086,0.110197368 L88.0111271,0.110197368 C88.977458,0.110197368 89.7673086,0.899210526 89.7673086,1.86453947 L89.7673086,1.86453947 C89.7717026,2.82986842 88.9818705,3.61888158 88.0111271,3.61888158 Z"></path>
                                <path d="M101.579472,3.61888158 L96.937554,3.61888158 C95.971223,3.61888158 95.1813909,2.82986842 95.1813909,1.86453947 L95.1813909,1.86453947 C95.1813909,0.899210526 95.971223,0.110197368 96.937554,0.110197368 L101.579472,0.110197368 C102.545803,0.110197368 103.335654,0.899210526 103.335654,1.86453947 L103.335654,1.86453947 C103.340048,2.82986842 102.545803,3.61888158 101.579472,3.61888158 Z"></path>
                                <path d="M115.147818,3.61888158 L110.505899,3.61888158 C109.539568,3.61888158 108.749736,2.82986842 108.749736,1.86453947 L108.749736,1.86453947 C108.749736,0.899210526 109.539568,0.110197368 110.505899,0.110197368 L115.147818,0.110197368 C116.114149,0.110197368 116.903999,0.899210526 116.903999,1.86453947 L116.903999,1.86453947 C116.908393,2.82986842 116.114149,3.61888158 115.147818,3.61888158 Z"></path>
                                <path d="M128.716163,3.61888158 L124.074245,3.61888158 C123.107914,3.61888158 122.318082,2.82986842 122.318082,1.86453947 L122.318082,1.86453947 C122.318082,0.899210526 123.107914,0.110197368 124.074245,0.110197368 L128.716163,0.110197368 C129.682494,0.110197368 130.472344,0.899210526 130.472344,1.86453947 L130.472344,1.86453947 C130.476739,2.82986842 129.682494,3.61888158 128.716163,3.61888158 Z"></path>
                                <path d="M142.284508,3.61888158 L137.64259,3.61888158 C136.676259,3.61888158 135.886427,2.82986842 135.886427,1.86453947 L135.886427,1.86453947 C135.886427,0.899210526 136.676259,0.110197368 137.64259,0.110197368 L142.284508,0.110197368 C143.250839,0.110197368 144.040671,0.899210526 144.040671,1.86453947 L144.040671,1.86453947 C144.040671,2.82986842 143.250839,3.61888158 142.284508,3.61888158 Z"></path>
                                <path d="M155.852854,3.61888158 L151.210935,3.61888158 C150.244604,3.61888158 149.454772,2.82986842 149.454772,1.86453947 L149.454772,1.86453947 C149.454772,0.899210526 150.244604,0.110197368 151.210935,0.110197368 L155.852854,0.110197368 C156.819185,0.110197368 157.609017,0.899210526 157.609017,1.86453947 L157.609017,1.86453947 C157.609017,2.82986842 156.819185,3.61888158 155.852854,3.61888158 Z"></path>
                                <path d="M169.421199,3.61888158 L164.779281,3.61888158 C163.81295,3.61888158 163.023118,2.82986842 163.023118,1.86453947 L163.023118,1.86453947 C163.023118,0.899210526 163.81295,0.110197368 164.779281,0.110197368 L169.421199,0.110197368 C170.38753,0.110197368 171.177362,0.899210526 171.177362,1.86453947 L171.177362,1.86453947 C171.177362,2.82986842 170.38753,3.61888158 169.421199,3.61888158 Z"></path>
                            </g>
                        </g>
                        <g id="Group" transform="translate(145.170264, 22.039474)" fill="#1998FF">
                            <path d="M39.7210552,6.36059211 L3.25640288,6.36059211 C1.59290168,6.36059211 0.233860911,5.00296053 0.233860911,3.34118421 L0.233860911,3.34118421 C0.233860911,1.67940789 1.59290168,0.321776316 3.25640288,0.321776316 L39.7210552,0.321776316 C41.3845564,0.321776316 42.7435971,1.67940789 42.7435971,3.34118421 L42.7435971,3.34118421 C42.7435971,5.00296053 41.3845564,6.36059211 39.7210552,6.36059211 Z" id="Path"></path>
                            <path d="M39.7210552,20.1881579 L3.25640288,20.1881579 C1.59290168,20.1881579 0.233860911,18.8305263 0.233860911,17.16875 L0.233860911,17.16875 C0.233860911,15.5069737 1.59290168,14.1493421 3.25640288,14.1493421 L39.7210552,14.1493421 C41.3845564,14.1493421 42.7435971,15.5069737 42.7435971,17.16875 L42.7435971,17.16875 C42.7435971,18.8305263 41.3845564,20.1881579 39.7210552,20.1881579 Z" id="Path"></path>
                        </g>
                    </g>
                    <g id="Tablet_1_" transform="translate(38.388489, 101.822368)">
                        <g id="Group">
                            <g id="Path">
                                <path d="M106.958273,16.2695395 L106.958273,131.637368 C106.958273,140.580987 99.6335731,147.898092 90.6806715,147.898092 L16.5026379,147.898092 C7.54973621,147.898092 0.225035971,140.580987 0.225035971,131.637368 L0.225035971,16.2695395 C0.225035971,7.32592105 7.54973621,0.0088138002 16.5026379,0.0088138002 L90.6806715,0.0088138002 C99.6335731,0.00440789474 106.958273,7.32592105 106.958273,16.2695395 Z" fill="#74D7FF"></path>
                                <path d="M6.30541966,131.280329 C6.30541966,132.651184 6.5657554,133.960329 7.01582734,135.181316 C8.61314149,139.496645 12.7564508,142.599803 17.5969305,142.599803 L76.7725659,142.599803 L89.5643165,142.599803 C95.7726619,142.599803 100.855827,137.504276 100.855827,131.280329 L100.855827,17.2613158 C100.855827,13.8011184 99.2805755,10.6891447 96.8184173,8.60861842 C67.8505516,36.3739474 37.0779856,62.3320395 6.30541966,88.2945395 L6.30541966,131.280329 L6.30541966,131.280329 Z" fill="#D8ECFC"></path>
                                <path d="M76.8343405,5.94184211 L17.592518,5.94184211 C11.3841727,5.94184211 6.30100719,11.0373684 6.30100719,17.2613158 L6.30100719,34.92375 L6.30100719,88.2945395 C37.0735731,62.3364474 67.8461391,36.3739474 96.8140048,8.60861842 C94.8460432,6.94684211 92.3176978,5.94184211 89.5599041,5.94184211 L76.8343405,5.94184211 L76.8343405,5.94184211 Z" fill="#EDF7FF"></path>
                            </g>
                            <ellipse id="Oval" fill="#1998FF" cx="53.5894484" cy="144.592171" rx="2.07827338" ry="2.07611842"></ellipse>
                        </g>
                        <g id="Group" transform="translate(45.448441, 22.921053)" fill="#1998FF">
                            <path d="M39.4916067,6.05644737 L3.02695444,6.05644737 C1.36345324,6.05644737 0.00441247002,4.69881579 0.00441247002,3.03703947 L0.00441247002,3.03703947 C0.00441247002,1.37526316 1.36345324,0.0176315789 3.02695444,0.0176315789 L39.4916067,0.0176315789 C41.1551079,0.0176315789 42.5141594,1.37526316 42.5141594,3.03703947 L42.5141594,3.03703947 C42.5185612,4.69881579 41.1551079,6.05644737 39.4916067,6.05644737 Z" id="Path"></path>
                            <path d="M39.4916067,19.8840132 L3.02695444,19.8840132 C1.36345324,19.8840132 0.00441247002,18.5263816 0.00441247002,16.8646053 L0.00441247002,16.8646053 C0.00441247002,15.2028289 1.36345324,13.8451974 3.02695444,13.8451974 L39.4916067,13.8451974 C41.1551079,13.8451974 42.5141594,15.2028289 42.5141594,16.8646053 L42.5141594,16.8646053 C42.5185612,18.5263816 41.1551079,19.8840132 39.4916067,19.8840132 Z" id="Path"></path>
                        </g>
                    </g>
                    <g id="Mobile_1_" transform="translate(0.000000, 138.848684)">
                        <g id="Group">
                            <path d="M47.698801,0.211578947 L8.42340528,0.211578947 C3.95798561,0.211578947 0.304460432,3.86131579 0.304460432,8.32210526 L0.304460432,47.6757895 C17.6057554,32.16 35.2379856,17.0232895 53.6291607,2.81664474 C52.1421583,1.22539474 50.0374101,0.211578947 47.698801,0.211578947 Z" id="Path" fill="#EDF7FF"></path>
                            <path d="M53.6247482,2.82105263 C35.2379856,17.0232895 17.6013429,32.1644079 0.300047962,47.6801974 L0.300047962,82.1411184 L0.300047962,104.356908 C0.300047962,108.817697 3.95357314,112.467434 8.41899281,112.467434 L47.6943885,112.467434 C52.1598082,112.467434 55.8133333,108.817697 55.8133333,104.356908 L55.8133333,8.32651316 C55.8133333,6.24157895 55.0102638,4.34177632 53.7041727,2.90039474 C53.6821103,2.86953947 53.651223,2.8475 53.6247482,2.82105263 Z" id="Path" fill="#D8ECFC"></path>
                            <path d="M47.698801,0.211578947 L8.42340528,0.211578947 C3.95798561,0.211578947 0.304460432,3.86131579 0.304460432,8.32210526 L0.304460432,104.3525 C0.304460432,108.813289 3.95798561,112.463026 8.42340528,112.463026 L47.698801,112.463026 C52.1642206,112.463026 55.8177458,108.813289 55.8177458,104.3525 L55.8177458,8.32210526 C55.8177458,3.86131579 52.1642206,0.211578947 47.698801,0.211578947 Z M52.2921823,93.8793421 C52.2921823,98.3401316 48.6386571,101.989868 44.1732374,101.989868 L11.9445564,101.989868 C7.47913669,101.989868 3.82561151,98.3401316 3.82561151,93.8793421 L3.82561151,12.0952632 C3.82561151,7.63447368 7.47913669,3.98473684 11.9445564,3.98473684 L44.1732374,3.98473684 C48.6386571,3.98473684 52.2921823,7.63447368 52.2921823,12.0952632 L52.2921823,93.8793421 Z" id="Shape" fill="#74D7FF"></path>
                            <path d="M33.2876739,2.78138158 L22.8301199,2.78138158 C22.5741966,2.78138158 22.3668106,2.57421053 22.3668106,2.31855263 L22.3668106,2.31855263 C22.3668106,2.06289474 22.5741966,1.85572368 22.8301199,1.85572368 L33.2876739,1.85572368 C33.5435971,1.85572368 33.7509832,2.06289474 33.7509832,2.31855263 L33.7509832,2.31855263 C33.7509832,2.57421053 33.5435971,2.78138158 33.2876739,2.78138158 Z" id="Path" fill="#E3E5FC"></path>
                            <ellipse id="Oval" fill="#1998FF" cx="28.0588969" cy="106.878224" rx="2.88134293" ry="2.87835526"></ellipse>
                        </g>
                        <g id="Group" transform="translate(6.618705, 70.967105)" fill="#FFFFFF">
                            <path d="M39.672518,6.10934211 L3.20786571,6.10934211 C1.54436451,6.10934211 0.185323741,4.75171053 0.185323741,3.08993421 L0.185323741,3.08993421 C0.185323741,1.42815789 1.54436451,0.0705263158 3.20786571,0.0705263158 L39.672518,0.0705263158 C41.3360192,0.0705263158 42.69506,1.42815789 42.69506,3.08993421 L42.69506,3.08993421 C42.69506,4.75171053 41.3360192,6.10934211 39.672518,6.10934211 Z" id="Path"></path>
                            <path d="M39.672518,19.9413158 L3.20786571,19.9413158 C1.54436451,19.9413158 0.185323741,18.5836842 0.185323741,16.9219079 L0.185323741,16.9219079 C0.185323741,15.2601316 1.54436451,13.9025 3.20786571,13.9025 L39.672518,13.9025 C41.3360192,13.9025 42.69506,15.2601316 42.69506,16.9219079 L42.69506,16.9219079 C42.69506,18.5792763 41.3360192,19.9413158 39.672518,19.9413158 Z" id="Path"></path>
                        </g>
                    </g>
                </g>
            </g>
        </g>
    </g>
</svg>